<?xml version="1.0" encoding="UTF-8" standalone="no"?>
<!-- Created with Inkscape (http://www.inkscape.org/) -->

<svg
   version="1.1"
   id="svg3464"
   width="880"
   height="880"
   viewBox="0 0 880 880"
   sodipodi:docname="summer-landscape-publicdomainvectors.org.svg"
   inkscape:version="1.2 (dc2aedaf03, 2022-05-15)"
   xmlns:inkscape="http://www.inkscape.org/namespaces/inkscape"
   xmlns:sodipodi="http://sodipodi.sourceforge.net/DTD/sodipodi-0.dtd"
   xmlns="http://www.w3.org/2000/svg"
   xmlns:svg="http://www.w3.org/2000/svg">
  <defs
     id="defs3468">
    <clipPath
       clipPathUnits="userSpaceOnUse"
       id="clipPath3482">
      <path
         d="M 0,660 H 660 V 0 H 0 Z"
         id="path3480" />
    </clipPath>
  </defs>
  <sodipodi:namedview
     id="namedview3466"
     pagecolor="#ffffff"
     bordercolor="#000000"
     borderopacity="0.25"
     inkscape:showpageshadow="2"
     inkscape:pageopacity="0.0"
     inkscape:pagecheckerboard="0"
     inkscape:deskcolor="#d1d1d1"
     showgrid="false"
     inkscape:zoom="0.95113636"
     inkscape:cx="440.52569"
     inkscape:cy="440.52569"
     inkscape:window-width="1920"
     inkscape:window-height="1017"
     inkscape:window-x="-8"
     inkscape:window-y="-8"
     inkscape:window-maximized="1"
     inkscape:current-layer="g3472">
    <inkscape:page
       x="0"
       y="0"
       id="page3470"
       width="880"
       height="880" />
  </sodipodi:namedview>
  <g
     id="g3472"
     inkscape:groupmode="layer"
     inkscape:label="Page 1"
     transform="matrix(1.3333333,0,0,-1.3333333,0,880)">
    <path
       d="M 0.536,0 H 660 V 658.295 H 0.536 Z"
       style="fill:#eff8d7;fill-opacity:1;fill-rule:nonzero;stroke:none"
       id="path3474" />
    <g
       id="g3476">
      <g
         id="g3478"
         clip-path="url(#clipPath3482)">
        <g
           id="g3484"
           transform="translate(516.5508,448.0674)">
          <path
             d="m 0,0 c 46.61,0 84.623,38.016 84.623,84.625 0,46.609 -38.013,84.624 -84.623,84.624 -46.609,0 -84.624,-38.015 -84.624,-84.624 C -84.624,38.016 -46.609,0 0,0"
             style="fill:#fbca07;fill-opacity:1;fill-rule:evenodd;stroke:none"
             id="path3486" />
        </g>
        <g
           id="g3488"
           transform="translate(0.5352,229.083)">
          <path
             d="m 0,0 v 224.85 l 16.849,18.351 c 32.05,34.904 82.86,42.721 123.221,21.642 15.538,-8.114 34.3,-3.88 44.845,10.125 18.864,25.052 46.219,38.696 77.874,38.757 23.488,0.044 44.639,-7.4 61.733,-21.45 14.69,-12.072 33.533,-14.825 51.061,-7.46 11.214,4.711 23.399,6.777 36.481,6.168 23.442,-1.085 43.225,-10.454 58.92,-27.9 L 597.081,122.927 121.358,-88.507 Z"
             style="fill:#adda1a;fill-opacity:1;fill-rule:evenodd;stroke:none"
             id="path3490" />
        </g>
        <path
           d="m 102.931,434.888 h 3.018 v 29.065 h -3.018 z"
           style="fill:#f68413;fill-opacity:1;fill-rule:evenodd;stroke:none"
           id="path3492" />
        <g
           id="g3494"
           transform="translate(104.4399,456.4888)">
          <path
             d="M 0,0 C 6.65,0 12.071,5.422 12.071,12.071 12.071,18.719 6.65,24.142 0,24.142 -6.649,24.142 -12.069,18.719 -12.069,12.071 -12.069,5.422 -6.649,0 0,0"
             style="fill:#c6e446;fill-opacity:1;fill-rule:evenodd;stroke:none"
             id="path3496" />
        </g>
        <path
           d="m 226.233,412.874 h 3.018 v 29.065 h -3.018 z"
           style="fill:#f68413;fill-opacity:1;fill-rule:evenodd;stroke:none"
           id="path3498" />
        <g
           id="g3500"
           transform="translate(227.7417,434.4746)">
          <path
             d="m 0,0 c 6.648,0 12.071,5.423 12.071,12.071 0,6.647 -5.423,12.071 -12.071,12.071 -6.647,0 -12.071,-5.424 -12.071,-12.071 C -12.071,5.423 -6.647,0 0,0"
             style="fill:#c6e446;fill-opacity:1;fill-rule:evenodd;stroke:none"
             id="path3502" />
        </g>
        <path
           d="m 380.122,418.498 h 3.017 v 29.064 h -3.017 z"
           style="fill:#f68413;fill-opacity:1;fill-rule:evenodd;stroke:none"
           id="path3504" />
        <g
           id="g3506"
           transform="translate(381.6299,440.0962)">
          <path
             d="M 0,0 C 6.649,0 12.07,5.423 12.07,12.071 12.07,18.72 6.649,24.142 0,24.142 -6.647,24.142 -12.069,18.72 -12.069,12.071 -12.069,5.423 -6.647,0 0,0"
             style="fill:#c6e446;fill-opacity:1;fill-rule:evenodd;stroke:none"
             id="path3508" />
        </g>
        <g
           id="g3510"
           transform="translate(660.2871,441.4878)">
          <path
             d="m 0,0 v -288.533 l -659.752,1.233 V -2.927 c 36.974,22.395 83.158,20.383 118.348,-5.823 31.106,-23.165 69.466,-27.378 104.858,-11.519 23.436,10.501 50.226,9.151 72.465,-3.608 29.294,-16.808 64.786,-12.461 89.156,10.921 l 26.573,25.495 c 20.389,19.563 45.237,28.788 73.449,27.269 26.918,-1.446 49.743,-12.29 67.564,-32.07 11.523,-12.792 30.754,-14.657 44.52,-4.321 18.629,13.986 44.187,13.048 61.796,-2.512 z"
             style="fill:#9ac421;fill-opacity:1;fill-rule:evenodd;stroke:none"
             id="path3512" />
        </g>
        <path
           d="m 170.056,345.405 h 4.828 v 46.503 h -4.828 z"
           style="fill:#f68413;fill-opacity:1;fill-rule:evenodd;stroke:none"
           id="path3514" />
        <g
           id="g3516"
           transform="translate(172.4697,379.9653)">
          <path
             d="m 0,0 c 10.638,0 19.314,8.676 19.314,19.312 0,10.639 -8.676,19.314 -19.314,19.314 -10.638,0 -19.314,-8.675 -19.314,-19.314 C -19.314,8.676 -10.638,0 0,0"
             style="fill:#c6e446;fill-opacity:1;fill-rule:evenodd;stroke:none"
             id="path3518" />
        </g>
        <path
           d="m 284.665,353.029 h 4.828 v 46.503 h -4.828 z"
           style="fill:#f68413;fill-opacity:1;fill-rule:evenodd;stroke:none"
           id="path3520" />
        <g
           id="g3522"
           transform="translate(287.0806,387.5874)">
          <path
             d="m 0,0 c 10.638,0 19.314,8.676 19.314,19.314 0,10.638 -8.676,19.314 -19.314,19.314 -10.638,0 -19.314,-8.676 -19.314,-19.314 C -19.314,8.676 -10.638,0 0,0"
             style="fill:#c6e446;fill-opacity:1;fill-rule:evenodd;stroke:none"
             id="path3524" />
        </g>
        <path
           d="m 399.531,325.581 h 4.827 v 46.507 h -4.827 z"
           style="fill:#f68413;fill-opacity:1;fill-rule:evenodd;stroke:none"
           id="path3526" />
        <g
           id="g3528"
           transform="translate(401.9443,360.1431)">
          <path
             d="m 0,0 c 10.639,0 19.315,8.676 19.315,19.314 0,10.637 -8.676,19.312 -19.315,19.312 -10.638,0 -19.313,-8.675 -19.313,-19.312 C -19.313,8.676 -10.638,0 0,0"
             style="fill:#c6e446;fill-opacity:1;fill-rule:evenodd;stroke:none"
             id="path3530" />
        </g>
        <path
           d="m 419.745,315.416 h 4.216 v 40.594 h -4.216 z"
           style="fill:#f68413;fill-opacity:1;fill-rule:evenodd;stroke:none"
           id="path3532" />
        <g
           id="g3534"
           transform="translate(421.8525,345.5854)">
          <path
             d="m 0,0 c 9.285,0 16.859,7.572 16.859,16.859 0,9.285 -7.574,16.859 -16.859,16.859 -9.284,0 -16.858,-7.574 -16.858,-16.859 C -16.858,7.572 -9.284,0 0,0"
             style="fill:#c6e446;fill-opacity:1;fill-rule:evenodd;stroke:none"
             id="path3536" />
        </g>
        <path
           d="m 607.64,356.143 h 4.212 v 40.594 h -4.212 z"
           style="fill:#f68413;fill-opacity:1;fill-rule:evenodd;stroke:none"
           id="path3538" />
        <g
           id="g3540"
           transform="translate(609.7441,386.3115)">
          <path
             d="m 0,0 c 9.284,0 16.858,7.573 16.858,16.857 0,9.287 -7.574,16.861 -16.858,16.861 -9.285,0 -16.859,-7.574 -16.859,-16.861 C -16.859,7.573 -9.285,0 0,0"
             style="fill:#c6e446;fill-opacity:1;fill-rule:evenodd;stroke:none"
             id="path3542" />
        </g>
        <g
           id="g3544"
           transform="translate(660.2871,326.0732)">
          <path
             d="m 0,0 v -247.925 l -659.752,116.9 v 114.121 l 54.948,49.339 c 32.908,29.552 80.81,32.247 116.407,8.742 25.965,-17.145 57.056,-18.493 84.404,-3.659 36.79,19.953 82.307,15.267 114.689,-13.484 l 2.088,-1.853 c 24.623,-21.862 61.448,-21.53 85.673,0.774 l 9.369,8.627 c 43.542,40.084 109.61,40.871 154.095,1.835 z"
             style="fill:#769a2a;fill-opacity:1;fill-rule:evenodd;stroke:none"
             id="path3546" />
        </g>
        <path
           d="M 0.535,-1.457 H 660.287 V 269.945 H 0.535 Z"
           style="fill:#54c6c8;fill-opacity:1;fill-rule:evenodd;stroke:none"
           id="path3548" />
        <g
           id="g3550"
           transform="translate(106.3921,223.8154)">
          <path
             d="m 0,0 c -1.325,0 -2.4,1.075 -2.4,2.402 0,1.326 1.075,2.401 2.4,2.401 h 106.732 c 1.326,0 2.401,-1.075 2.401,-2.401 C 109.133,1.075 108.058,0 106.732,0 Z m 96.567,19.314 c -1.325,0 -2.4,1.076 -2.4,2.401 0,1.325 1.075,2.4 2.4,2.4 H 229.73 c 1.325,0 2.4,-1.075 2.4,-2.4 0,-1.325 -1.075,-2.401 -2.4,-2.401 z M 178.905,4.067 c -1.327,0 -2.403,1.076 -2.403,2.401 0,1.325 1.076,2.4 2.403,2.4 h 69.12 c 1.327,0 2.402,-1.075 2.402,-2.4 0,-1.325 -1.075,-2.401 -2.402,-2.401 z m 185.002,22.082 c 1.326,0 2.4,-1.076 2.4,-2.401 0,-1.326 -1.074,-2.402 -2.4,-2.402 h -60.99 c -1.326,0 -2.401,1.076 -2.401,2.402 0,1.325 1.075,2.401 2.401,2.401 z M 314.099,-5.082 c -1.327,0 -2.402,1.075 -2.402,2.402 0,1.325 1.075,2.401 2.402,2.401 h 77.253 c 1.325,0 2.4,-1.076 2.4,-2.401 0,-1.327 -1.075,-2.402 -2.4,-2.402 z m 105.715,17.28 c -1.325,0 -2.4,1.076 -2.4,2.402 0,1.326 1.075,2.401 2.4,2.401 h 42.692 c 1.327,0 2.403,-1.075 2.403,-2.401 0,-1.326 -1.076,-2.402 -2.403,-2.402 z m 40.661,-14.229 c -1.327,0 -2.402,1.073 -2.402,2.4 0,1.325 1.075,2.401 2.402,2.401 h 56.923 c 1.327,0 2.402,-1.076 2.402,-2.401 0,-1.327 -1.075,-2.4 -2.402,-2.4 z m 35.577,26.427 c -1.327,0 -2.402,1.077 -2.402,2.402 0,1.325 1.075,2.4 2.402,2.4 h 45.742 c 1.328,0 2.403,-1.075 2.403,-2.4 0,-1.325 -1.075,-2.402 -2.403,-2.402 z m -580.421,-3.05 c -1.327,0 -2.402,1.076 -2.402,2.402 0,1.325 1.075,2.401 2.402,2.401 h 47.774 c 1.327,0 2.403,-1.076 2.403,-2.401 0,-1.326 -1.076,-2.402 -2.403,-2.402 z"
             style="fill:#7dd4dc;fill-opacity:1;fill-rule:evenodd;stroke:none"
             id="path3552" />
        </g>
        <g
           id="g3554"
           transform="translate(207.0244,191.3564)">
          <path
             d="m 0,0 c -1.988,0 -3.6,1.613 -3.6,3.603 0,1.988 1.612,3.601 3.6,3.601 h 59.974 c 1.989,0 3.602,-1.613 3.602,-3.601 C 63.576,1.613 61.963,0 59.974,0 Z m 112.832,19.312 c -1.99,0 -3.601,1.614 -3.601,3.604 0,1.989 1.611,3.601 3.601,3.601 h 57.941 c 1.989,0 3.602,-1.612 3.602,-3.601 0,-1.99 -1.613,-3.604 -3.602,-3.604 z m 25.413,-39.643 c -1.988,0 -3.601,1.614 -3.601,3.603 0,1.989 1.613,3.602 3.601,3.602 h 83.354 c 1.988,0 3.601,-1.613 3.601,-3.602 0,-1.989 -1.613,-3.603 -3.601,-3.603 z M 214.482,-6.1 c -1.988,0 -3.601,1.614 -3.601,3.604 0,1.988 1.613,3.6 3.601,3.6 h 103.684 c 1.988,0 3.602,-1.612 3.602,-3.6 0,-1.99 -1.614,-3.604 -3.602,-3.604 z m 94.535,-25.412 c -1.989,0 -3.602,1.613 -3.602,3.604 0,1.988 1.613,3.599 3.602,3.599 h 85.387 c 1.989,0 3.6,-1.611 3.6,-3.599 0,-1.991 -1.611,-3.604 -3.6,-3.604 z M 375.09,2.034 c -1.988,0 -3.604,1.612 -3.604,3.6 0,1.99 1.616,3.603 3.604,3.603 h 57.939 c 1.989,0 3.604,-1.613 3.604,-3.603 0,-1.988 -1.615,-3.6 -3.604,-3.6 z M -169.754,-26.43 c -1.989,0 -3.603,1.614 -3.603,3.604 0,1.988 1.614,3.6 3.603,3.6 h 81.234 c 1.989,0 3.602,-1.612 3.602,-3.6 0,-1.99 -1.613,-3.604 -3.602,-3.604 z m 52.857,17.283 c -1.989,0 -3.6,1.612 -3.6,3.6 0,1.988 1.611,3.604 3.6,3.604 h 49.809 c 1.988,0 3.602,-1.616 3.602,-3.604 0,-1.988 -1.614,-3.6 -3.602,-3.6 z m 106.884,-25.577 c -1.988,0 -3.6,1.614 -3.6,3.602 0,1.989 1.612,3.602 3.6,3.602 h 75.07 c 1.988,0 3.602,-1.613 3.602,-3.602 0,-1.988 -1.614,-3.602 -3.602,-3.602 z m -163.563,44.845 c -1.988,0 -3.601,1.612 -3.601,3.604 0,1.988 1.613,3.599 3.601,3.599 h 102.421 c 1.989,0 3.604,-1.611 3.604,-3.599 0,-1.992 -1.615,-3.604 -3.604,-3.604 z"
             style="fill:#96dde7;fill-opacity:1;fill-rule:evenodd;stroke:none"
             id="path3556" />
        </g>
        <g
           id="g3558"
           transform="translate(16.9424,51.2197)">
          <path
             d="m 0,0 c -3.314,0 -6.004,2.689 -6.004,6.004 0,3.313 2.69,6.002 6.004,6.002 h 54.89 c 3.316,0 6.004,-2.689 6.004,-6.002 C 60.894,2.689 58.206,0 54.89,0 Z m 264.037,29.856 c 3.315,0 6.002,-2.687 6.002,-6.002 0,-3.316 -2.687,-6.002 -6.002,-6.002 h -89.454 c -3.315,0 -6.002,2.686 -6.002,6.002 0,3.315 2.687,6.002 6.002,6.002 z M 229.729,-3.241 c 3.314,0 6.003,-2.689 6.003,-6.003 0,-3.315 -2.689,-6.004 -6.003,-6.004 H 105.716 c -3.315,0 -6.004,2.689 -6.004,6.004 0,3.314 2.689,6.003 6.004,6.003 z m 173.822,17.28 c 3.315,0 6.002,-2.688 6.002,-6.002 0,-3.315 -2.687,-6.004 -6.002,-6.004 h -87.419 c -3.316,0 -6.004,2.689 -6.004,6.004 0,3.314 2.688,6.002 6.004,6.002 z m 182.97,-16.772 c 3.312,0 6.002,-2.688 6.002,-6.003 0,-3.316 -2.69,-6.002 -6.002,-6.002 h -107.75 c -3.315,0 -6.003,2.686 -6.003,6.002 0,3.315 2.688,6.003 6.003,6.003 z m -43.202,76.938 c -3.315,0 -6.003,2.688 -6.003,6.003 0,3.315 2.688,6.002 6.003,6.002 h 73.188 c 3.315,0 6.002,-2.687 6.002,-6.002 0,-3.315 -2.687,-6.003 -6.002,-6.003 z M 506.842,26.906 c -3.316,0 -6.004,2.687 -6.004,6.002 0,3.316 2.688,6.003 6.004,6.003 h 79.679 c 3.316,0 6.002,-2.687 6.002,-6.003 0,-3.315 -2.686,-6.002 -6.002,-6.002 z M 389.827,81.319 c -3.314,0 -6.003,2.689 -6.003,6.003 0,3.316 2.689,6.004 6.003,6.004 h 78.271 c 3.315,0 6.002,-2.688 6.002,-6.004 0,-3.314 -2.687,-6.003 -6.002,-6.003 z M 325.279,37.61 c -3.313,0 -6.002,2.689 -6.002,6.004 0,3.315 2.689,6.003 6.002,6.003 h 92.503 c 3.314,0 6.002,-2.688 6.002,-6.003 0,-3.315 -2.688,-6.004 -6.002,-6.004 z m -133.67,38.627 c -3.314,0 -6.002,2.689 -6.002,6.004 0,3.314 2.688,6.002 6.002,6.002 h 76.24 c 3.313,0 6.002,-2.688 6.002,-6.002 0,-3.315 -2.689,-6.004 -6.002,-6.004 z M 78.27,50.824 c -3.315,0 -6.002,2.691 -6.002,6.004 0,3.315 2.687,6.005 6.002,6.005 h 113.847 c 3.316,0 6.003,-2.69 6.003,-6.005 0,-3.313 -2.687,-6.004 -6.003,-6.004 z M 2.541,77.255 c -3.315,0 -6.004,2.688 -6.004,6.004 0,3.313 2.689,6.002 6.004,6.002 h 68.106 c 3.315,0 6.002,-2.689 6.002,-6.002 0,-3.316 -2.687,-6.004 -6.002,-6.004 z"
             style="fill:#96dde7;fill-opacity:1;fill-rule:evenodd;stroke:none"
             id="path3560" />
        </g>
        <g
           id="g3562"
           transform="translate(255.8179,610.71)">
          <path
             d="m 0,0 c 5.473,0 9.91,-4.438 9.91,-9.911 0,-0.19 -0.005,-0.377 -0.016,-0.564 l 27.794,-4.646 H 8.431 c -1.747,-2.821 -4.867,-4.7 -8.431,-4.7 -2.392,0 -4.588,0.847 -6.3,2.259 -2.69,-4.834 -7.85,-8.105 -13.775,-8.105 -6.115,0 -11.416,3.484 -14.029,8.576 -2.218,-3.041 -5.808,-5.018 -9.858,-5.018 -4.875,0 -9.08,2.857 -11.032,6.988 h -21.319 l 20.287,3.391 c -0.09,0.594 -0.136,1.201 -0.136,1.819 0,6.737 5.463,12.198 12.2,12.198 4.05,0 7.64,-1.976 9.858,-5.017 2.613,5.091 7.914,8.574 14.029,8.574 C -14.15,5.844 -8.99,2.573 -6.3,-2.26 -4.588,-0.848 -2.392,0 0,0"
             style="fill:#ffffff;fill-opacity:1;fill-rule:evenodd;stroke:none"
             id="path3564" />
        </g>
        <g
           id="g3566"
           transform="translate(89.6211,588.8555)">
          <path
             d="m 0,0 c 5.511,0 10.392,-2.7 13.393,-6.85 1.201,0.484 2.513,0.751 3.886,0.751 2.528,0 4.844,-0.9 6.648,-2.395 2.658,4.189 7.337,6.969 12.666,6.969 8.155,0 14.788,-6.509 14.99,-14.615 l 1.52,-0.252 34.553,-5.717 H 50.509 c -2.215,-5.512 -7.611,-9.403 -13.916,-9.403 -5.329,0 -10.008,2.78 -12.666,6.969 -1.804,-1.495 -4.12,-2.395 -6.648,-2.395 -1.373,0 -2.685,0.266 -3.886,0.751 -3.001,-4.15 -7.882,-6.849 -13.393,-6.849 -6.651,0 -12.382,3.931 -15.003,9.596 -1.955,-2.296 -4.87,-3.752 -8.123,-3.752 -3.845,0 -7.213,2.033 -9.093,5.083 h -18.335 l 17.114,2.832 c -0.233,0.88 -0.361,1.804 -0.361,2.759 0,5.894 4.78,10.673 10.675,10.673 3.253,0 6.168,-1.456 8.123,-3.752 C -12.382,-3.932 -6.651,0 0,0"
             style="fill:#ffffff;fill-opacity:1;fill-rule:evenodd;stroke:none"
             id="path3568" />
        </g>
        <g
           id="g3570"
           transform="translate(308.1685,572.5913)">
          <path
             d="m 0,0 c 1.932,0 3.747,-0.503 5.322,-1.383 2.993,4.219 7.917,6.973 13.482,6.973 5.496,0 10.365,-2.684 13.368,-6.813 1.959,1.409 4.365,2.24 6.964,2.24 3.018,0 5.774,-1.121 7.877,-2.968 2.696,3.504 6.927,5.762 11.689,5.762 3.72,0 7.119,-1.379 9.713,-3.653 0.481,0.063 0.971,0.096 1.469,0.096 6.174,0 11.181,-5.006 11.181,-11.182 0,-0.139 -0.003,-0.277 -0.008,-0.414 l 19.835,-3.905 H 80.2 c -1.69,-4.031 -5.672,-6.862 -10.316,-6.862 -0.498,0 -0.988,0.033 -1.469,0.096 -2.594,-2.275 -5.993,-3.654 -9.713,-3.654 -4.762,0 -8.993,2.259 -11.689,5.762 -2.103,-1.847 -4.859,-2.967 -7.877,-2.967 -2.599,0 -5.005,0.83 -6.964,2.24 -3.003,-4.13 -7.872,-6.814 -13.368,-6.814 -5.565,0 -10.489,2.754 -13.482,6.974 -1.575,-0.881 -3.39,-1.382 -5.322,-1.382 -4.5,0 -8.365,2.72 -10.04,6.607 h -20.715 l 19.836,3.905 c -0.004,0.138 -0.009,0.275 -0.009,0.414 C -10.928,-4.892 -6.036,0 0,0"
             style="fill:#ffffff;fill-opacity:1;fill-rule:evenodd;stroke:none"
             id="path3572" />
        </g>
        <g
           id="g3574"
           transform="translate(561.2744,606.1353)">
          <path
             d="m 0,0 c 5.513,0 10.394,-2.7 13.395,-6.849 1.201,0.484 2.511,0.75 3.888,0.75 2.525,0 4.841,-0.9 6.644,-2.395 2.661,4.189 7.34,6.969 12.67,6.969 8.153,0 14.788,-6.509 14.986,-14.615 l 1.523,-0.252 34.551,-5.717 H 50.511 c -2.217,-5.511 -7.611,-9.403 -13.914,-9.403 -5.33,0 -10.009,2.78 -12.67,6.97 -1.803,-1.496 -4.119,-2.395 -6.644,-2.395 -1.377,0 -2.687,0.266 -3.888,0.75 -3.001,-4.149 -7.882,-6.849 -13.395,-6.849 -6.649,0 -12.381,3.931 -15,9.596 -1.957,-2.295 -4.87,-3.752 -8.123,-3.752 -3.845,0 -7.215,2.033 -9.095,5.083 h -18.335 l 17.115,2.832 c -0.234,0.88 -0.36,1.805 -0.36,2.759 0,5.895 4.779,10.673 10.675,10.673 3.253,0 6.166,-1.456 8.123,-3.752 C -12.381,-3.931 -6.649,0 0,0"
             style="fill:#ffffff;fill-opacity:1;fill-rule:evenodd;stroke:none"
             id="path3576" />
        </g>
        <g
           id="g3578"
           transform="translate(537.1387,153.7891)">
          <path
             d="m 0,0 -18.063,-37.767 h -116.04 l -28.12,48.705 -79.709,48.725 83.745,-41.052 h 36.673 l 19.705,-19.431 z"
             style="fill:#945d29;fill-opacity:1;fill-rule:evenodd;stroke:none"
             id="path3580" />
        </g>
        <g
           id="g3582"
           transform="translate(298.9678,211.6074)">
          <path
             d="m 0,0 c 36.43,65.416 91.621,100.064 161.934,109.907 -44.466,-62.8 -29.833,-116.624 -0.315,-168.187 -8.196,10.643 -16.392,21.288 -24.59,31.929 -44.776,-1.398 -87.972,17.878 -123.26,38.168 z"
             style="fill:#ffffff;fill-opacity:1;fill-rule:evenodd;stroke:none"
             id="path3584" />
        </g>
        <g
           id="g3586"
           transform="translate(460.9014,321.5146)">
          <path
             d="m 0,0 76.237,-167.725 -14.231,19.57 H 23.887 l -8.62,-20.062 5.061,25.145 v 1.525 z"
             style="fill:#ffffff;fill-opacity:1;fill-rule:evenodd;stroke:none"
             id="path3588" />
        </g>
        <g
           id="g3590"
           transform="translate(460.9014,321.5146)">
          <path
             d="M 0,0 V 18.298 H 94.024 L 57.937,9.91 103.428,0 Z"
             style="fill:#f68413;fill-opacity:1;fill-rule:evenodd;stroke:none"
             id="path3592" />
        </g>
      </g>
    </g>
  </g>
</svg>
